<svg width="141" height="135" xmlns="http://www.w3.org/2000/svg">
 <!-- Created with Method Draw - http://github.com/duopixel/Method-Draw/ -->
 <g>
  <title>background</title>
 </g>
 <g>
  <title>Layer 1</title>
  <g id="svg_63">
   <path id="svg_1" d="m110.792966,8.181987c0,4.518 -3.66,8.178 -8.174,8.178c-4.521,0 -8.185,-3.66 -8.185,-8.178c0,-4.52 3.664,-8.182 8.185,-8.182c4.514,0 8.174,3.662 8.174,8.182z"/>
   <circle id="svg_2" r="6.929" cy="29.749987" cx="104.899966"/>
   <circle id="svg_3" r="5.857" cy="47.911987" cx="102.750966"/>
   <path id="svg_4" d="m102.405966,62.610987c0,2.762 -2.243,5.006 -5.004,5.006c-2.765,0 -5.008,-2.244 -5.008,-5.006c0,-2.761 2.243,-5.004 5.008,-5.004c2.761,0 5.004,2.243 5.004,5.004z"/>
   <path id="svg_5" d="m94.481966,73.717987c0,2.375 -1.922,4.297 -4.293,4.297c-2.377,0 -4.303,-1.922 -4.303,-4.297c0,-2.374 1.926,-4.302 4.303,-4.302c2.371,0 4.293,1.928 4.293,4.302z"/>
   <path id="svg_6" d="m85.814966,81.593987c0,2.043 -1.652,3.694 -3.693,3.694c-2.038,0 -3.687,-1.651 -3.687,-3.694c0,-2.038 1.648,-3.689 3.687,-3.689c2.04,-0.001 3.693,1.651 3.693,3.689z"/>
   <path id="svg_7" d="m129.943966,33.867987c-0.874,3.74 -4.616,6.063 -8.358,5.19c-3.738,-0.876 -6.061,-4.616 -5.183,-8.356c0.877,-3.74 4.616,-6.06 8.354,-5.185c3.741,0.877 6.061,4.615 5.187,8.351z"/>
   <path id="svg_8" d="m126.619966,51.923987c-0.743,3.166 -3.909,5.133 -7.081,4.387c-3.163,-0.738 -5.128,-3.909 -4.385,-7.073c0.739,-3.165 3.91,-5.134 7.07,-4.39c3.17,0.744 5.137,3.91 4.396,7.076z"/>
   <path id="svg_9" d="m120.434966,66.333987c-0.625,2.675 -3.304,4.337 -5.983,3.709c-2.674,-0.627 -4.337,-3.301 -3.711,-5.981c0.623,-2.677 3.307,-4.337 5.983,-3.712s4.342,3.304 3.711,5.984z"/>
   <path id="svg_10" d="m112.457966,77.298987c-0.54,2.291 -2.823,3.706 -5.113,3.172c-2.287,-0.539 -3.709,-2.824 -3.171,-5.111c0.53,-2.287 2.82,-3.711 5.109,-3.172c2.287,0.535 3.708,2.825 3.175,5.111z"/>
   <path id="svg_11" d="m103.745966,84.953987c-0.461,1.962 -2.423,3.187 -4.388,2.723c-1.964,-0.458 -3.183,-2.425 -2.725,-4.393c0.458,-1.96 2.426,-3.184 4.391,-2.72c1.967,0.459 3.182,2.422 2.722,4.39z"/>
   <path id="svg_12" d="m95.047966,89.794987c-0.396,1.688 -2.086,2.732 -3.771,2.34c-1.688,-0.398 -2.736,-2.084 -2.342,-3.773c0.396,-1.686 2.084,-2.734 3.768,-2.342c1.69,0.398 2.738,2.085 2.345,3.775z"/>
   <path id="svg_13" d="m140.653966,58.509987c-1.424,2.945 -4.967,4.175 -7.908,2.75c-2.945,-1.424 -4.175,-4.966 -2.748,-7.912c1.421,-2.939 4.958,-4.172 7.905,-2.75c2.942,1.427 4.177,4.969 2.751,7.912z"/>
   <path id="svg_14" d="m134.484966,72.778987c-1.217,2.508 -4.221,3.554 -6.728,2.34c-2.508,-1.209 -3.551,-4.223 -2.345,-6.728c1.217,-2.504 4.227,-3.548 6.731,-2.343c2.509,1.216 3.557,4.229 2.342,6.731z"/>
   <path id="svg_15" d="m126.728966,83.608987c-1.046,2.165 -3.651,3.066 -5.816,2.02c-2.161,-1.045 -3.066,-3.645 -2.018,-5.813c1.046,-2.162 3.651,-3.07 5.812,-2.019c2.167,1.047 3.07,3.649 2.022,5.812z"/>
   <path id="svg_16" d="m118.091966,91.255987c-0.911,1.879 -3.166,2.66 -5.046,1.756c-1.879,-0.908 -2.665,-3.174 -1.759,-5.053c0.913,-1.877 3.173,-2.662 5.047,-1.756c1.879,0.91 2.667,3.172 1.758,5.053z"/>
   <path id="svg_17" d="m109.390966,95.972987c-0.774,1.605 -2.703,2.275 -4.309,1.498c-1.605,-0.773 -2.277,-2.708 -1.5,-4.311c0.777,-1.602 2.705,-2.275 4.311,-1.498c1.608,0.775 2.275,2.702 1.498,4.311z"/>
   <path id="svg_18" d="m101.218966,98.347987c-0.659,1.365 -2.301,1.937 -3.664,1.277c-1.359,-0.658 -1.933,-2.298 -1.274,-3.66s2.301,-1.934 3.663,-1.275c1.362,0.66 1.934,2.301 1.275,3.658z"/>
   <path id="svg_19" d="m107.869966,129.630987c-3.915,-2.248 -5.261,-7.255 -3.005,-11.168c2.259,-3.912 7.254,-5.258 11.172,-3.002c3.912,2.256 5.264,7.257 3.008,11.169c-2.259,3.915 -7.26,5.261 -11.175,3.001z"/>
   <path id="svg_20" d="m88.669966,119.760987c-3.313,-1.907 -4.461,-6.14 -2.544,-9.458c1.908,-3.313 6.14,-4.453 9.462,-2.545c3.311,1.908 4.449,6.148 2.538,9.461c-1.908,3.316 -6.141,4.456 -9.456,2.542z"/>
   <path id="svg_21" d="m74.535966,107.907987c-2.805,-1.62 -3.769,-5.196 -2.153,-8.004c1.617,-2.801 5.198,-3.765 8,-2.15c2.801,1.617 3.77,5.195 2.151,7.996c-1.612,2.81 -5.192,3.769 -7.998,2.158z"/>
   <path id="svg_22" d="m64.893966,95.192987c-2.392,-1.383 -3.216,-4.441 -1.837,-6.839c1.383,-2.392 4.438,-3.217 6.838,-1.835c2.392,1.381 3.215,4.439 1.832,6.836c-1.377,2.394 -4.438,3.217 -6.833,1.838z"/>
   <path id="svg_23" d="m59.229966,82.786987c-2.058,-1.188 -2.765,-3.814 -1.58,-5.873c1.187,-2.06 3.818,-2.761 5.874,-1.576c2.051,1.184 2.76,3.813 1.577,5.865c-1.185,2.063 -3.817,2.768 -5.871,1.584z"/>
   <path id="svg_24" d="m56.730966,71.337987c-1.765,-1.016 -2.374,-3.271 -1.354,-5.041c1.018,-1.766 3.273,-2.37 5.04,-1.354c1.763,1.018 2.371,3.275 1.354,5.043c-1.018,1.762 -3.276,2.369 -5.04,1.352z"/>
   <circle id="svg_25" r="6.954" cy="128.326987" cx="80.803966"/>
   <path id="svg_26" d="m62.069966,121.509987c-2.374,-2.227 -2.495,-5.95 -0.273,-8.324c2.225,-2.375 5.95,-2.493 8.324,-0.274c2.372,2.228 2.495,5.95 0.273,8.325c-2.223,2.374 -5.946,2.492 -8.324,0.273z"/>
   <path id="svg_27" d="m52.667966,108.959987c-2.005,-1.884 -2.108,-5.035 -0.229,-7.042c1.883,-2.008 5.032,-2.111 7.039,-0.229c2.009,1.879 2.111,5.031 0.229,7.038c-1.877,2.007 -5.029,2.109 -7.039,0.233z"/>
   <path id="svg_28" d="m47.153966,96.565987c-1.717,-1.602 -1.804,-4.296 -0.198,-6.012c1.611,-1.713 4.296,-1.805 6.012,-0.199c1.717,1.609 1.804,4.3 0.199,6.017c-1.606,1.713 -4.297,1.804 -6.013,0.194z"/>
   <path id="svg_29" d="m44.864966,85.202987c-1.472,-1.379 -1.545,-3.691 -0.169,-5.164c1.38,-1.476 3.692,-1.552 5.168,-0.174c1.476,1.381 1.547,3.693 0.169,5.168c-1.381,1.474 -3.69,1.55 -5.168,0.17z"/>
   <path id="svg_30" d="m45.017966,75.241987c-1.266,-1.182 -1.332,-3.169 -0.146,-4.434c1.185,-1.266 3.171,-1.331 4.437,-0.143c1.263,1.184 1.331,3.168 0.143,4.434c-1.184,1.265 -3.172,1.333 -4.434,0.143z"/>
   <path id="svg_31" d="m49.352966,130.383987c-1.832,-2.705 -1.137,-6.39 1.568,-8.226c2.706,-1.844 6.389,-1.141 8.227,1.563c1.839,2.703 1.14,6.387 -1.565,8.223c-2.706,1.843 -6.384,1.142 -8.23,-1.56z"/>
   <path id="svg_32" d="m40.067966,117.911987c-1.567,-2.302 -0.968,-5.436 1.333,-7c2.298,-1.563 5.434,-0.969 6.999,1.328c1.566,2.302 0.968,5.438 -1.331,7.001c-2.304,1.566 -5.433,0.972 -7.001,-1.329z"/>
   <path id="svg_33" d="m34.558966,105.780987c-1.353,-1.986 -0.836,-4.691 1.149,-6.043c1.989,-1.354 4.698,-0.84 6.047,1.151c1.356,1.989 0.839,4.695 -1.147,6.049c-1.99,1.345 -4.7,0.837 -6.049,-1.157z"/>
   <path id="svg_34" d="m32.247966,94.485987c-1.171,-1.727 -0.727,-4.074 0.997,-5.25c1.728,-1.175 4.074,-0.729 5.25,0.998c1.177,1.725 0.73,4.08 -1.001,5.25c-1.724,1.176 -4.07,0.724 -5.246,-0.998z"/>
   <path id="svg_35" d="m32.501966,84.591987c-1.003,-1.475 -0.625,-3.481 0.854,-4.486c1.473,-1.002 3.48,-0.617 4.483,0.852c1.006,1.479 0.625,3.492 -0.854,4.486c-1.475,1.006 -3.48,0.624 -4.483,-0.852z"/>
   <path id="svg_36" d="m34.522966,76.321987c-0.85,-1.256 -0.524,-2.957 0.721,-3.814c1.254,-0.848 2.961,-0.523 3.812,0.73c0.852,1.249 0.528,2.959 -0.723,3.807c-1.26,0.853 -2.961,0.529 -3.81,-0.723z"/>
   <path id="svg_37" d="m4.092966,66.390987c3.913,-2.257 8.913,-0.914 11.171,2.999c2.26,3.912 0.911,8.915 -2.998,11.174c-3.916,2.254 -8.913,0.91 -11.168,-2.996c-2.263,-3.918 -0.913,-8.922 2.995,-11.177z"/>
   <path id="svg_38" d="m22.260966,54.726987c3.31,-1.916 7.552,-0.78 9.462,2.536c1.908,3.315 0.774,7.549 -2.541,9.461c-3.313,1.908 -7.551,0.771 -9.461,-2.536c-1.912,-3.318 -0.771,-7.553 2.54,-9.461z"/>
   <path id="svg_39" d="m39.600966,48.434987c2.801,-1.614 6.388,-0.653 8.002,2.146c1.616,2.807 0.653,6.391 -2.145,8.007c-2.808,1.613 -6.383,0.65 -8.003,-2.152c-1.616,-2.799 -0.653,-6.383 2.146,-8.001z"/>
   <path id="svg_40" d="m55.436966,46.464987c2.394,-1.382 5.452,-0.56 6.832,1.835c1.385,2.397 0.56,5.453 -1.829,6.835c-2.397,1.383 -5.458,0.563 -6.841,-1.838c-1.38,-2.391 -0.558,-5.449 1.838,-6.832z"/>
   <path id="svg_41" d="m69.009966,47.778987c2.062,-1.185 4.684,-0.48 5.871,1.578c1.188,2.054 0.48,4.686 -1.574,5.868c-2.055,1.19 -4.686,0.485 -5.868,-1.573c-1.19,-2.057 -0.484,-4.685 1.571,-5.873z"/>
   <path id="svg_42" d="m80.167966,51.351987c1.768,-1.015 4.025,-0.41 5.042,1.354c1.021,1.767 0.414,4.024 -1.353,5.042c-1.766,1.015 -4.021,0.416 -5.041,-1.352c-1.017,-1.767 -0.41,-4.023 1.352,-5.044z"/>
   <path id="svg_43" d="m16.781966,36.968987c3.675,-1.107 7.556,0.974 8.664,4.65c1.111,3.676 -0.971,7.557 -4.646,8.664c-3.672,1.108 -7.554,-0.972 -8.662,-4.646c-1.113,-3.678 0.967,-7.557 4.644,-8.668z"/>
   <path id="svg_44" d="m34.079966,30.831987c3.114,-0.94 6.394,0.824 7.338,3.934c0.94,3.115 -0.825,6.401 -3.935,7.344c-3.115,0.936 -6.397,-0.826 -7.342,-3.938c-0.936,-3.111 0.823,-6.401 3.939,-7.34z"/>
   <path id="svg_45" d="m49.652966,28.988987c2.628,-0.8 5.409,0.69 6.203,3.324c0.795,2.636 -0.693,5.411 -3.33,6.208c-2.628,0.795 -5.411,-0.695 -6.204,-3.324c-0.798,-2.635 0.696,-5.412 3.331,-6.208z"/>
   <path id="svg_46" d="m63.142966,30.425987c2.244,-0.679 4.615,0.59 5.299,2.844c0.677,2.248 -0.595,4.622 -2.844,5.303c-2.25,0.676 -4.628,-0.597 -5.302,-2.846c-0.679,-2.252 0.593,-4.626 2.847,-5.301z"/>
   <path id="svg_47" d="m74.120966,34.141987c1.929,-0.582 3.966,0.506 4.554,2.439c0.582,1.935 -0.514,3.973 -2.445,4.557c-1.934,0.584 -3.969,-0.512 -4.554,-2.445c-0.585,-1.927 0.509,-3.968 2.445,-4.551z"/>
   <path id="svg_48" d="m82.657966,39.264987c1.665,-0.505 3.408,0.437 3.912,2.093c0.5,1.664 -0.438,3.411 -2.098,3.912c-1.66,0.5 -3.406,-0.439 -3.909,-2.098c-0.499,-1.662 0.439,-3.412 2.095,-3.907z"/>
   <path id="svg_49" d="m32.773966,15.384987c3.261,-0.237 6.1,2.21 6.336,5.475c0.234,3.26 -2.22,6.096 -5.479,6.336c-3.26,0.237 -6.099,-2.217 -6.333,-5.476c-0.233,-3.266 2.217,-6.102 5.476,-6.335z"/>
   <path id="svg_50" d="m48.221966,13.594987c2.773,-0.2 5.19,1.886 5.389,4.659c0.2,2.779 -1.883,5.189 -4.665,5.39c-2.772,0.205 -5.185,-1.886 -5.384,-4.655c-0.204,-2.779 1.883,-5.19 4.66,-5.394z"/>
   <path id="svg_51" d="m61.474966,14.905987c2.396,-0.174 4.483,1.629 4.655,4.028c0.173,2.397 -1.628,4.479 -4.024,4.656c-2.4,0.169 -4.483,-1.632 -4.66,-4.028c-0.173,-2.402 1.628,-4.483 4.029,-4.656z"/>
   <path id="svg_52" d="m72.410966,18.567987c2.08,-0.151 3.89,1.415 4.042,3.496c0.149,2.082 -1.416,3.892 -3.496,4.042c-2.084,0.152 -3.893,-1.413 -4.043,-3.491c-0.152,-2.086 1.414,-3.892 3.497,-4.047z"/>
   <path id="svg_53" d="m80.842966,23.742987c1.78,-0.127 3.328,1.206 3.457,2.988c0.128,1.778 -1.209,3.323 -2.987,3.454c-1.78,0.129 -3.328,-1.207 -3.454,-2.986c-0.131,-1.779 1.206,-3.323 2.984,-3.456z"/>
   <path id="svg_54" d="m86.985966,29.639987c1.512,-0.104 2.826,1.026 2.934,2.536c0.107,1.509 -1.026,2.824 -2.535,2.934c-1.507,0.11 -2.821,-1.028 -2.932,-2.538c-0.109,-1.508 1.026,-2.82 2.533,-2.932z"/>
  </g>
 </g>
</svg>